<svg width="468" height="154" viewBox="0 0 468 154" fill="none" xmlns="http://www.w3.org/2000/svg">
<g clip-path="url(#clip0)">
<path d="M238.201 4.06262C239.296 4.06262 239.843 4.88424 239.706 6.25359L239.296 13.1156C239.296 13.5264 239.022 14.0741 238.201 14.2111L234.233 14.4849H233.823V71.2523C233.823 98.9436 222.998 112.12 195.313 112.12C168.875 112.12 157.351 103.204 157.351 71.2523V14.4849L153.11 14.2111C152.152 14.2111 151.741 13.2525 151.878 12.0201L152.289 5.1581C152.289 4.47343 152.699 4.06262 153.383 4.06262H176.811C177.906 4.06262 178.453 4.88424 178.316 6.25359L177.906 13.1156C177.906 13.5264 177.632 14.0741 176.811 14.2111L172.843 14.4849V73.991C172.843 91.0014 177.906 100.176 195.176 100.176C214.363 100.176 218.741 88.3844 218.741 73.991V14.4849L214.499 14.2111C213.542 14.2111 213.131 13.2525 213.268 12.0201L213.679 5.1581C213.679 4.47343 214.089 4.06262 214.773 4.06262H238.201Z" fill="#293D9B"/>
<path d="M380.015 4.06267C381.11 4.06267 381.657 4.88428 381.52 6.25364L381.11 13.1156C381.11 13.5264 380.836 14.0742 380.015 14.2111L376.184 14.485L353.03 105.669C352.209 108.681 349.746 110.461 346.736 110.461L336.048 110.051C334.543 110.051 333.995 109.092 333.585 107.586L314.946 27.3721H314.809L296.444 104.025C295.76 106.764 293.981 110.614 289.177 110.477L278.9 110.066C277.668 110.066 276.847 109.381 276.437 107.601L253.967 14.485L249.862 14.2111C248.904 14.2111 248.494 13.2525 248.63 12.0201L249.041 5.15815C249.041 4.47347 249.451 4.06267 250.135 4.06267H272.742C273.837 4.06267 274.384 4.88428 274.248 6.25364L273.837 13.1156C273.837 13.5264 273.563 14.0742 272.742 14.2111L268.911 14.485L286.425 94.4248H286.562L306.159 10.3617C307.253 5.56896 309.579 3.91052 312.878 4.04745L320.693 4.45825C322.061 4.59519 322.608 5.27988 323.019 7.06004L342.889 94.4096H343.026L361.376 14.485L357.271 14.2111C356.314 14.2111 355.903 13.2525 356.04 12.0201L356.45 5.15815C356.45 4.47347 356.861 4.06267 357.545 4.06267H380.015Z" fill="#293D9B"/>
<path d="M436.738 72.2108L418.92 21.6056H418.783L401.923 72.2108H436.738ZM466.748 100.328C467.706 100.328 468.117 101.287 467.98 102.519L467.569 109.381C467.569 110.066 467.159 110.477 466.612 110.477H442.636C441.542 110.477 440.994 109.655 441.131 108.286L441.542 101.424C441.542 101.013 441.815 100.465 442.636 100.328L446.467 100.054L441.131 84.8393H397.696L392.634 100.054L396.875 100.328C397.833 100.328 398.243 101.287 398.107 102.519L397.696 109.381C397.696 110.066 397.286 110.477 396.601 110.477H373.447C372.353 110.477 371.805 109.655 371.942 108.286L372.353 101.424C372.353 101.013 372.626 100.465 373.447 100.328L377.278 100.054L407.973 14.4849L403.869 14.2111C402.911 14.2111 402.5 13.2525 402.637 12.0201L403.048 5.15813C403.048 4.47345 403.458 4.06264 404.142 4.06264H425.928L462.644 100.054L466.748 100.328Z" fill="#293D9B"/>
<path d="M161.775 137.483C163.797 137.483 165.379 136.738 165.379 134.06C165.379 132.052 164.421 130.819 161.836 130.819H159.586V137.483H161.775ZM161.806 128.902C166.154 128.902 167.872 130.545 167.872 133.999C167.872 138.275 164.77 139.446 162.019 139.446H159.601V144.193L160.27 144.239C160.422 144.239 160.483 144.391 160.468 144.589L160.407 145.684C160.407 145.791 160.346 145.852 160.225 145.852H156.485C156.302 145.852 156.226 145.715 156.242 145.502L156.302 144.406C156.302 144.345 156.348 144.254 156.485 144.224L157.123 144.178V130.545L156.439 130.5C156.287 130.5 156.226 130.348 156.242 130.15L156.302 129.054C156.302 128.948 156.363 128.887 156.485 128.887H161.806" fill="#293D9B"/>
<path d="M187.727 143.006C187.833 143.006 187.909 143.067 187.909 143.174V145.852H177.328C177.146 145.852 177.07 145.715 177.085 145.502L177.146 144.406C177.146 144.345 177.191 144.254 177.328 144.224L177.967 144.178V130.545L177.283 130.5C177.131 130.5 177.07 130.348 177.085 130.15L177.146 129.054C177.146 128.948 177.207 128.887 177.328 128.887H187.545V131.55C187.545 131.717 187.408 131.808 187.195 131.793L186.1 131.732C186.039 131.732 185.948 131.686 185.933 131.565L185.887 130.926H180.445V136.099H186.602V138.107H180.445V143.813H186.252L186.298 143.143C186.298 142.991 186.45 142.93 186.648 142.946L187.727 143.006Z" fill="#293D9B"/>
<path d="M202.58 137.346C204.937 137.346 206.29 136.312 206.29 133.954C206.29 131.702 204.998 130.804 202.778 130.804H200.68V137.331C200.68 137.346 202.58 137.346 202.58 137.346ZM209.315 144.239C209.467 144.239 209.528 144.391 209.513 144.589L209.452 145.684C209.452 145.791 209.391 145.852 209.285 145.852H206.792L203.082 139.294H200.68V144.193L201.349 144.239C201.501 144.239 201.562 144.391 201.547 144.589L201.486 145.684C201.486 145.791 201.425 145.852 201.303 145.852H197.563C197.381 145.852 197.305 145.715 197.32 145.502L197.381 144.406C197.381 144.345 197.427 144.254 197.563 144.224L198.202 144.178V130.545L197.533 130.5C197.381 130.5 197.32 130.348 197.335 130.15L197.396 129.054C197.396 128.948 197.457 128.887 197.579 128.887H202.504C206.761 128.887 208.768 130.5 208.768 133.954C208.768 136.16 207.613 138.046 205.53 138.822L208.631 144.178L209.315 144.239Z" fill="#293D9B"/>
<path d="M230.28 128.902V131.565C230.28 131.732 230.143 131.823 229.931 131.808L228.836 131.747C228.775 131.747 228.684 131.702 228.654 131.58L228.608 130.941V130.926H225.294V144.193L225.963 144.239C226.115 144.239 226.175 144.391 226.16 144.589L226.099 145.684C226.099 145.791 226.039 145.852 225.917 145.852H222.177C221.995 145.852 221.919 145.715 221.934 145.502L221.995 144.406C221.995 144.345 222.04 144.254 222.177 144.224L222.816 144.178V130.895H219.745L219.699 131.565C219.699 131.717 219.547 131.778 219.349 131.763L218.255 131.702C218.148 131.702 218.072 131.641 218.072 131.534V128.902H230.28Z" fill="#293D9B"/>
<path d="M253.784 144.239C253.936 144.239 253.997 144.391 253.982 144.589L253.921 145.684C253.921 145.791 253.86 145.852 253.739 145.852H249.999C249.816 145.852 249.74 145.715 249.755 145.502L249.816 144.406C249.816 144.345 249.862 144.254 249.999 144.224L250.637 144.178V138.305H243.036V144.193L243.705 144.239C243.857 144.239 243.917 144.391 243.902 144.589L243.841 145.684C243.841 145.791 243.781 145.852 243.674 145.852H239.934C239.752 145.852 239.676 145.715 239.691 145.502L239.752 144.406C239.752 144.345 239.797 144.254 239.934 144.224L240.573 144.178V130.545L239.904 130.5C239.752 130.5 239.691 130.348 239.706 130.15L239.767 129.054C239.767 128.948 239.828 128.887 239.949 128.887H243.689C243.857 128.887 243.948 129.024 243.933 129.237L243.872 130.332C243.872 130.393 243.826 130.484 243.705 130.515L243.066 130.561V136.281H250.668V130.561L249.983 130.515C249.831 130.515 249.771 130.363 249.786 130.165L249.847 129.069C249.847 128.963 249.907 128.902 250.029 128.902H253.769C253.951 128.902 254.027 129.039 254.012 129.252L253.951 130.348C253.951 130.408 253.906 130.5 253.769 130.53L253.13 130.576V144.193L253.784 144.239Z" fill="#293D9B"/>
<path d="M267.908 136.19C268.197 136.479 268.349 136.829 268.349 137.24C268.349 137.651 268.197 138.001 267.908 138.29C267.619 138.579 267.269 138.731 266.859 138.731C266.448 138.731 266.099 138.579 265.81 138.29C265.521 138.001 265.369 137.651 265.369 137.24C265.369 136.829 265.521 136.479 265.81 136.19C266.099 135.886 266.448 135.749 266.859 135.749C267.269 135.749 267.634 135.886 267.908 136.19Z" fill="#293D9B"/>
<path d="M288.873 139.75L286.03 131.686H285.999L283.308 139.75H288.873ZM293.647 144.239C293.799 144.239 293.859 144.391 293.844 144.589L293.783 145.684C293.783 145.791 293.723 145.852 293.631 145.852H289.815C289.648 145.852 289.557 145.715 289.572 145.502L289.633 144.406C289.633 144.345 289.679 144.254 289.8 144.224L290.408 144.178L289.557 141.759H282.64L281.834 144.178L282.503 144.224C282.655 144.224 282.716 144.376 282.7 144.574L282.64 145.669C282.64 145.776 282.579 145.836 282.457 145.836H278.763C278.58 145.836 278.504 145.7 278.519 145.487L278.58 144.391C278.58 144.33 278.626 144.239 278.763 144.208L279.371 144.163L284.266 130.53L283.613 130.484C283.46 130.484 283.4 130.332 283.415 130.135L283.476 129.039C283.476 128.933 283.536 128.872 283.658 128.872H287.124L292.978 144.163L293.647 144.239Z" fill="#293D9B"/>
<path d="M315.828 128.902C315.995 128.902 316.086 129.039 316.071 129.252L316.01 130.348C316.01 130.408 315.965 130.5 315.843 130.53L315.205 130.576H315.144V139.598C315.144 144.011 313.411 146.11 309.002 146.11C304.79 146.11 302.951 144.695 302.951 139.598V130.561L302.282 130.515C302.13 130.515 302.069 130.363 302.084 130.165L302.145 129.07C302.145 128.963 302.206 128.902 302.312 128.902H306.052C306.235 128.902 306.311 129.039 306.296 129.252L306.235 130.348C306.235 130.408 306.189 130.5 306.052 130.53L305.414 130.576V140.04C305.414 142.748 306.22 144.208 308.971 144.208C312.027 144.208 312.726 142.337 312.726 140.04V130.561L312.057 130.515C311.905 130.515 311.845 130.363 311.86 130.165L311.921 129.07C311.921 128.963 311.981 128.902 312.088 128.902H315.828Z" fill="#293D9B"/>
<path d="M336.443 141.196C336.443 143.95 334.406 145.958 330.59 145.958C328.537 145.958 326.896 145.517 325.725 145.015V142.367C325.725 142.17 325.877 142.063 326.135 142.078L327.443 142.17C327.534 142.17 327.64 142.215 327.656 142.367L327.701 143.554C328.735 143.798 329.754 143.919 330.453 143.919C332.445 143.919 333.995 143.25 333.995 141.424C333.995 139.477 333.25 139.081 329.891 137.879C327.443 136.966 325.771 135.718 325.771 133.284C325.771 130.545 327.838 128.735 331.532 128.735C332.886 128.735 334.178 128.872 335.394 129.176V132.036C335.394 132.234 335.242 132.341 334.984 132.325L333.676 132.234C333.585 132.234 333.478 132.189 333.463 132.036L333.418 130.85C332.825 130.789 332.232 130.743 331.684 130.743C329.647 130.743 328.325 131.686 328.325 133.193C328.325 134.76 329.237 135.338 332.232 136.403C335.348 137.529 336.443 139.02 336.443 141.196Z" fill="#293D9B"/>
<path d="M357.606 128.902V131.565C357.606 131.732 357.469 131.823 357.256 131.808L356.161 131.747C356.101 131.747 356.009 131.702 355.994 131.58L355.949 130.941V130.926H352.634V144.193L353.303 144.239C353.455 144.239 353.516 144.391 353.501 144.589L353.44 145.684C353.44 145.791 353.379 145.852 353.273 145.852H349.533C349.366 145.852 349.274 145.715 349.29 145.502L349.35 144.406C349.35 144.345 349.396 144.254 349.518 144.224L350.156 144.178V130.895H347.085L347.04 131.565C347.04 131.717 346.888 131.778 346.69 131.763L345.595 131.702C345.489 131.702 345.428 131.641 345.428 131.534V128.902H357.606Z" fill="#293D9B"/>
<path d="M372.718 137.346C375.074 137.346 376.427 136.312 376.427 133.954C376.427 131.702 375.135 130.804 372.915 130.804H370.817V137.331L372.718 137.346ZM379.468 144.239C379.62 144.239 379.681 144.391 379.665 144.589L379.605 145.684C379.605 145.791 379.544 145.852 379.437 145.852H376.944L373.234 139.294H370.832V144.193L371.501 144.239C371.653 144.239 371.714 144.391 371.699 144.589L371.638 145.684C371.638 145.791 371.577 145.852 371.471 145.852H367.731C367.564 145.852 367.472 145.715 367.488 145.502L367.548 144.406C367.548 144.345 367.594 144.254 367.716 144.224L368.354 144.178V130.545L367.685 130.5C367.533 130.5 367.472 130.348 367.488 130.15L367.548 129.054C367.548 128.948 367.609 128.887 367.716 128.887H372.657C376.914 128.887 378.92 130.5 378.92 133.954C378.92 136.16 377.765 138.046 375.697 138.822L378.799 144.178L379.468 144.239Z" fill="#293D9B"/>
<path d="M399.11 139.75L396.267 131.686H396.252L393.561 139.75H399.11ZM403.884 144.239C404.036 144.239 404.097 144.391 404.081 144.589L404.021 145.684C404.021 145.791 403.96 145.852 403.869 145.852H400.053C399.87 145.852 399.794 145.715 399.809 145.502L399.87 144.406C399.87 144.345 399.916 144.254 400.053 144.224L400.661 144.178L399.809 141.759H392.892L392.086 144.178L392.77 144.224C392.922 144.224 392.983 144.376 392.968 144.574L392.907 145.669C392.907 145.776 392.846 145.836 392.74 145.836H389.046C388.878 145.836 388.787 145.7 388.802 145.487L388.863 144.391C388.863 144.33 388.909 144.239 389.03 144.208L389.639 144.163L394.534 130.53L393.88 130.484C393.728 130.484 393.667 130.332 393.683 130.135L393.743 129.039C393.743 128.933 393.804 128.872 393.911 128.872H397.377L403.23 144.163L403.884 144.239Z" fill="#293D9B"/>
<path d="M424.712 143.006C424.818 143.006 424.879 143.067 424.879 143.174V145.852H414.298C414.131 145.852 414.039 145.715 414.055 145.502L414.115 144.406C414.115 144.345 414.161 144.254 414.283 144.224L414.921 144.178V130.545L414.252 130.5C414.1 130.5 414.039 130.348 414.055 130.15L414.115 129.054C414.115 128.948 414.176 128.887 414.283 128.887H418.023C418.19 128.887 418.281 129.024 418.266 129.237L418.205 130.332C418.205 130.393 418.159 130.484 418.038 130.515L417.399 130.561V143.813H423.222L423.268 143.143C423.268 142.991 423.42 142.93 423.617 142.946L424.712 143.006Z" fill="#293D9B"/>
<path d="M438.775 144.239C438.927 144.239 438.987 144.391 438.972 144.589L438.911 145.684C438.911 145.791 438.851 145.852 438.744 145.852H435.004C434.837 145.852 434.746 145.715 434.761 145.502L434.822 144.406C434.822 144.345 434.868 144.254 434.989 144.224L435.628 144.178V130.545L434.959 130.5C434.807 130.5 434.746 130.348 434.761 130.15L434.822 129.054C434.822 128.948 434.883 128.887 434.989 128.887H438.729C438.896 128.887 438.987 129.024 438.972 129.237L438.911 130.332C438.911 130.393 438.866 130.484 438.744 130.515L438.106 130.561V144.193L438.775 144.239Z" fill="#293D9B"/>
<path d="M458.402 139.75L455.559 131.686H455.544L452.853 139.75H458.402ZM463.176 144.239C463.328 144.239 463.389 144.391 463.373 144.589L463.313 145.684C463.313 145.791 463.252 145.852 463.16 145.852H459.344C459.177 145.852 459.086 145.715 459.101 145.502L459.162 144.406C459.162 144.345 459.208 144.254 459.329 144.224L459.937 144.178L459.086 141.759H452.169L451.363 144.178L452.032 144.224C452.184 144.224 452.245 144.376 452.229 144.574L452.169 145.669C452.169 145.776 452.108 145.836 452.001 145.836H448.307C448.14 145.836 448.049 145.7 448.064 145.487L448.125 144.391C448.125 144.33 448.17 144.239 448.292 144.208L448.9 144.163L453.795 130.53L453.142 130.484C452.99 130.484 452.929 130.332 452.944 130.135L453.005 129.039C453.005 128.933 453.066 128.872 453.172 128.872H456.638L462.492 144.163L463.176 144.239Z" fill="#293D9B"/>
<path d="M121.503 107.586C109.979 126.498 89.9259 137.788 67.8055 137.788C45.6851 137.788 25.6323 126.498 14.1084 107.601L2.02197 118.784C8.77212 128.887 17.8027 137.377 28.3232 143.463C40.2728 150.355 53.9251 154.007 67.8055 154.007C81.6858 154.007 95.3229 150.355 107.288 143.448C117.504 137.544 126.626 128.233 133.315 118.51L121.503 107.586Z" fill="#293D9B"/>
<path d="M15.4463 3.98657H120.15V0.000228643H15.4463V3.98657Z" fill="#DAAC06"/>
<path d="M120.149 41.948C119.952 53.6332 122.688 100.009 67.8055 132.447C12.9073 100.009 15.6591 53.6332 15.4614 41.948V3.98651H120.165L120.149 41.948Z" fill="#293D9B"/>
<path d="M22.3636 82.6787C29.0226 98.9893 42.082 117.247 67.8055 132.447C93.5291 117.247 106.588 98.9893 113.232 82.6787L67.8055 40.6244L22.3636 82.6787Z" fill="#DAAC06"/>
<path d="M59.2766 14.3632V34.5687C53.8491 32.5756 47.327 34.1579 43.8607 36.7141V16.6911C46.8861 13.7241 54.0772 12.4004 59.2766 14.3632Z" fill="white"/>
<path d="M26.9246 14.4089V34.6144C32.3368 32.6213 38.8741 34.2036 42.3404 36.7598V16.7368C39.315 13.785 32.124 12.4461 26.9246 14.4089Z" fill="white"/>
<path d="M63.9135 30.4303H63.8679C63.0925 30.3543 62.4996 30.3086 62.1043 30.2782V23.6901C62.4996 23.7205 63.0773 23.7509 63.8222 23.8422H63.9135C65.4642 23.9183 65.677 23.1271 65.677 23.1271C65.3274 22.3055 64.552 21.9403 63.9135 21.8947H63.8679C63.0925 21.8186 62.4996 21.773 62.1043 21.7425V16.1586H60.736V36.4707C53.2713 34.8731 47.6462 35.6947 43.1005 39.0268C38.57 35.6947 32.9297 34.8731 25.465 36.4707V16.1586H24.0967V21.7273C23.8078 21.7425 23.4278 21.773 22.9413 21.8186V21.6056C22.9413 21.4535 22.8197 21.3317 22.6372 21.3317L20.7824 21.5295C20.6304 21.5447 20.5088 21.6665 20.5088 21.8186V24.2074C20.5088 24.3595 20.6304 24.4813 20.8281 24.4813L22.6828 24.2987C22.8197 24.2835 22.9413 24.1617 22.9413 24.0096V23.7814C23.4278 23.7357 23.8078 23.7053 24.0967 23.6901V30.2782C23.8078 30.2934 23.4278 30.3238 22.9413 30.3695V30.1565C22.9413 30.0043 22.8197 29.8826 22.6372 29.8826L20.7824 30.0804C20.6304 30.0956 20.5088 30.2173 20.5088 30.3695V32.743C20.5088 32.8952 20.6304 33.0321 20.8281 33.0169L22.6828 32.8343C22.8197 32.8191 22.9413 32.6974 22.9413 32.5604V32.3322C23.4278 32.2866 23.8078 32.2561 24.0967 32.2409V38.19L24.9329 37.9922C32.6104 36.1968 38.2507 36.9728 42.6748 40.4266L43.1005 40.7614L43.5262 40.4266C47.9503 36.9728 53.5906 36.1968 61.2681 37.9922L62.1043 38.19V32.2409C62.4996 32.2714 63.0773 32.3018 63.8222 32.3931H63.9135C65.4642 32.4692 65.677 31.678 65.677 31.678C65.3274 30.8564 64.552 30.4912 63.9135 30.4303Z" fill="white"/>
<path d="M25.1915 134.06C24.4617 135.003 23.2303 135.155 21.9076 134.136C21.1931 133.588 20.7522 133.01 20.4785 132.523L21.1779 131.61C21.2235 131.55 21.3147 131.55 21.3907 131.626L21.8164 132.006C21.8468 132.021 21.8772 132.067 21.8468 132.128L21.5427 132.554C21.8316 132.904 22.1508 133.223 22.3941 133.421C23.0782 133.953 23.7928 134.136 24.2793 133.512C24.7962 132.843 24.6441 132.508 23.808 131.2C23.2151 130.226 22.9566 129.359 23.6103 128.522C24.3401 127.578 25.5411 127.502 26.803 128.491C27.2743 128.856 27.6847 129.237 28.0192 129.678L27.2591 130.667C27.2135 130.728 27.1222 130.728 27.0462 130.652L26.6205 130.271C26.5901 130.241 26.5597 130.211 26.5901 130.15L26.8942 129.724C26.7118 129.541 26.5141 129.374 26.3317 129.222C25.6323 128.674 24.9178 128.643 24.5225 129.176C24.0968 129.724 24.2641 130.165 25.009 131.321C25.7844 132.508 25.7692 133.314 25.1915 134.06Z" fill="white"/>
<path d="M32.489 139.598C32.5346 139.629 32.5346 139.659 32.5194 139.705L31.9264 140.709L27.9585 138.366C27.8976 138.32 27.8824 138.259 27.9433 138.183L28.2169 137.788C28.2321 137.757 28.2625 137.742 28.3233 137.757L28.5666 137.879L31.5768 132.767L31.3335 132.599C31.2727 132.569 31.2879 132.493 31.3335 132.432L31.6072 132.036C31.6376 131.991 31.668 131.991 31.7136 132.006L35.5448 134.273L34.9518 135.277C34.9062 135.338 34.8454 135.353 34.7694 135.292L34.3741 135.019C34.3437 135.003 34.3285 134.973 34.3437 134.912L34.4654 134.669L32.4281 133.467L31.2879 135.414L33.5988 136.784L33.1579 137.544L30.847 136.19L29.5852 138.335L31.7592 139.614L31.9264 139.37C31.9569 139.309 32.0329 139.324 32.0937 139.37L32.489 139.598Z" fill="white"/>
<path d="M40.8049 143.478C40.8505 143.493 40.8657 143.539 40.8505 143.585L40.3944 144.65L36.168 142.824C36.092 142.793 36.092 142.733 36.1376 142.641L36.3504 142.215C36.3656 142.185 36.396 142.154 36.4568 142.17L36.7153 142.261L39.0718 136.814L38.8133 136.677C38.7525 136.647 38.7525 136.586 38.7981 136.51L39.0109 136.084C39.0262 136.038 39.0718 136.023 39.1174 136.038L43.207 137.803L42.7509 138.868C42.7205 138.944 42.6597 138.944 42.5685 138.898L42.1428 138.685C42.1124 138.67 42.082 138.64 42.0972 138.579L42.1884 138.32L40.0144 137.377L39.0718 139.461L41.5347 140.526L41.185 141.333L38.7221 140.268L37.7339 142.55L40.06 143.554L40.1968 143.296C40.2272 143.235 40.288 143.235 40.364 143.28L40.8049 143.478Z" fill="white"/>
<path d="M52.0704 140.602C52.1464 140.618 52.1616 140.694 52.1312 140.77L51.9791 141.226C51.9639 141.257 51.9487 141.287 51.8879 141.272L51.6143 141.211L48.6345 142.976L49.9419 146.902L50.2156 146.993C50.2764 147.008 50.2916 147.084 50.2612 147.16L50.1092 147.617C50.094 147.662 50.0636 147.677 50.0179 147.662L49.045 147.388L47.7527 143.509L46.9317 143.995L46.3692 145.913L46.6429 146.004C46.7037 146.019 46.7189 146.095 46.6885 146.171L46.5365 146.628C46.5213 146.673 46.4908 146.688 46.4452 146.673L44.8793 146.247C44.8033 146.232 44.7881 146.156 44.8185 146.08L44.9705 145.623C44.9857 145.593 45.001 145.563 45.0618 145.578L45.3354 145.639L46.9469 139.933L46.6733 139.842C46.6125 139.826 46.5973 139.75 46.6277 139.674L46.7797 139.218C46.7949 139.172 46.8253 139.157 46.8709 139.172L48.4368 139.613C48.5129 139.629 48.5281 139.705 48.4976 139.796L48.3456 140.253C48.3304 140.283 48.3152 140.313 48.2544 140.298L47.9807 140.237L47.2662 142.793L50.3828 140.922L50.1092 140.831C50.0484 140.815 50.0332 140.739 50.0636 140.663L50.2156 140.207C50.2308 140.161 50.2612 140.146 50.3068 140.161L52.0704 140.602Z" fill="white"/>
<path d="M68.809 142.55C68.885 142.55 68.9154 142.611 68.9002 142.702L68.8394 143.174C68.8394 143.204 68.8242 143.235 68.7633 143.25H68.4897L66.5589 149.488C66.4829 149.701 66.3157 149.808 66.1028 149.792L65.3579 149.732C65.2514 149.732 65.221 149.655 65.1906 149.549L64.1872 143.919H64.172L62.6213 149.169C62.5605 149.351 62.4237 149.61 62.0892 149.595L61.3747 149.534C61.2834 149.534 61.2378 149.473 61.2074 149.351L59.9912 142.824L59.7023 142.793C59.6415 142.793 59.6111 142.717 59.6263 142.641L59.6871 142.17C59.6871 142.124 59.7175 142.094 59.7631 142.094L61.3291 142.17C61.4051 142.17 61.4355 142.23 61.4203 142.322L61.3595 142.793C61.3595 142.824 61.3443 142.854 61.2834 142.87H61.0098L61.9372 148.469H61.9524L63.6095 142.717C63.7007 142.383 63.868 142.276 64.096 142.307L64.6433 142.367C64.7345 142.383 64.7801 142.428 64.7954 142.55L65.8596 148.666H65.8748L67.4407 143.189L67.1518 143.159C67.091 143.159 67.0606 143.083 67.0758 143.006L67.1214 142.535C67.1214 142.489 67.1518 142.459 67.1974 142.459L68.809 142.55Z" fill="white"/>
<path d="M74.7686 148.758C74.8294 148.758 74.875 148.819 74.8598 148.91L74.875 149.382C74.875 149.427 74.8598 149.458 74.799 149.458L73.1874 149.595C73.1114 149.595 73.0658 149.549 73.0658 149.458L73.0506 148.986C73.0506 148.956 73.0658 148.91 73.1266 148.91L73.4003 148.864L72.8986 142.946H72.6097C72.5489 142.946 72.5033 142.885 72.5185 142.809L72.5033 142.337C72.5033 142.291 72.5185 142.261 72.5793 142.261L74.1908 142.124C74.2669 142.124 74.3125 142.17 74.3125 142.261L74.3277 142.733C74.3277 142.763 74.3125 142.793 74.2516 142.809L73.978 142.854L74.4797 148.773L74.7686 148.758Z" fill="white"/>
<path d="M83.7383 146.019C83.9664 147.191 83.267 148.225 81.6251 148.529C80.7433 148.697 80.0136 148.651 79.4663 148.529L79.2534 147.404C79.2382 147.312 79.299 147.267 79.4054 147.251L79.968 147.175C79.9984 147.175 80.0592 147.175 80.0744 147.236L80.196 147.738C80.6521 147.754 81.1082 147.723 81.3971 147.677C82.2484 147.51 82.8565 147.099 82.7045 146.323C82.5525 145.486 82.2028 145.38 80.6521 145.152C79.5271 144.954 78.7061 144.574 78.5085 143.524C78.2804 142.352 79.0254 141.409 80.5913 141.105C81.169 140.998 81.7315 140.937 82.2788 140.968L82.5221 142.185C82.5373 142.276 82.4765 142.322 82.37 142.337L81.8075 142.413C81.7771 142.413 81.7163 142.413 81.7011 142.352L81.5795 141.85C81.321 141.865 81.0626 141.896 80.8345 141.941C79.968 142.109 79.4815 142.626 79.6031 143.265C79.7247 143.935 80.1656 144.102 81.5339 144.315C82.963 144.528 83.5559 145.076 83.7383 146.019Z" fill="white"/>
<path d="M90.7165 145.258C92.6321 144.619 92.6321 143.159 92.1456 141.713C91.6135 140.131 90.8837 139.203 88.8161 139.903L88.0255 140.161L89.8347 145.547L90.7165 145.258ZM88.5425 139.096C91.3398 138.153 92.5105 139.248 93.225 141.363C94.1068 143.98 93.149 145.334 90.7317 146.141L88.8161 146.78C88.7401 146.81 88.6945 146.765 88.6641 146.673L88.5425 146.217C88.5273 146.186 88.5425 146.141 88.5881 146.126L88.8465 146.019L86.9613 140.389L86.6725 140.466C86.6117 140.481 86.5661 140.435 86.5356 140.344L86.414 139.887C86.3988 139.842 86.414 139.811 86.4596 139.796L88.5425 139.096Z" fill="white"/>
<path d="M97.8314 139.385C98.3939 140.496 99.3669 141.82 100.766 141.12C101.921 140.542 101.921 139.309 101.13 137.727C100.553 136.586 99.5798 135.323 98.2115 136.008C96.8128 136.723 97.2689 138.29 97.8314 139.385ZM102.134 137.24C103.259 139.492 102.818 141.074 101.146 141.911C99.5037 142.733 97.9226 142.124 96.8128 139.903C96.0071 138.305 95.7334 136.251 97.801 135.216C99.595 134.334 101.146 135.262 102.134 137.24Z" fill="white"/>
<path d="M113.582 133.223C113.643 133.178 113.703 133.223 113.734 133.299L113.992 133.71C114.023 133.756 114.007 133.786 113.977 133.817L112.67 134.745C112.609 134.79 112.548 134.76 112.502 134.684L112.244 134.273C112.229 134.243 112.214 134.212 112.259 134.166L112.472 133.999L109.751 130.348L110.739 134.927C110.769 135.079 110.769 135.247 110.663 135.323C110.572 135.384 110.45 135.475 110.359 135.521C110.268 135.581 110.207 135.581 110.131 135.536L105.995 133.025L108.519 136.799L108.778 136.647C108.838 136.601 108.899 136.647 108.93 136.723L109.188 137.133C109.219 137.179 109.203 137.209 109.173 137.24L107.896 138.138C107.835 138.183 107.774 138.153 107.729 138.077L107.47 137.666C107.455 137.636 107.455 137.605 107.485 137.559L107.698 137.377L104.43 132.417L104.186 132.569C104.126 132.615 104.065 132.569 104.034 132.493L103.776 132.082C103.745 132.036 103.761 132.006 103.791 131.976L104.718 131.321C104.764 131.291 104.794 131.306 104.84 131.321L109.72 134.243L108.519 128.765C108.504 128.674 108.519 128.628 108.595 128.567L109.568 127.883C109.629 127.837 109.69 127.867 109.735 127.944L109.994 128.354C110.009 128.385 110.024 128.415 109.979 128.461L109.766 128.628L113.369 133.345L113.582 133.223Z" fill="white"/>
<path d="M4.98659 113.307L12.6793 106.186L14.4277 104.543L15.4007 106.155C17.073 108.94 18.9582 111.557 20.9802 113.991L23.5951 111.618C20.0441 107.313 17.1635 102.497 15.051 97.3307C14.2452 95.368 13.5763 93.3748 13.0138 91.336L8.83296 102.093L0 103.341C0.015203 103.371 0.0304061 103.417 0.0456091 103.447L4.98659 113.307Z" fill="#293D9B"/>
<path d="M108.732 14.3632V34.5687C103.32 32.5756 96.7826 34.1579 93.3163 36.7141V16.6911C96.3569 13.7241 103.533 12.4004 108.732 14.3632Z" fill="white"/>
<path d="M76.3953 14.4089V34.6144C81.8075 32.6213 88.3449 34.2036 91.8111 36.7598V16.7368C88.7705 13.785 81.5947 12.4461 76.3953 14.4089Z" fill="white"/>
<path d="M113.384 30.4303H113.339C112.563 30.3543 111.97 30.3086 111.575 30.2782V23.6901C111.97 23.7205 112.548 23.7509 113.293 23.8422H113.384C114.935 23.9183 115.148 23.1271 115.148 23.1271C114.798 22.3055 114.023 21.9403 113.384 21.8947H113.339C112.563 21.8186 111.97 21.773 111.575 21.7425V16.1586H110.207V36.4707C102.742 34.8731 97.117 35.6947 92.5713 39.0268C88.0408 35.6947 82.4005 34.8731 74.9358 36.4707V16.1586H73.5675V21.7273C73.2787 21.7425 72.8986 21.773 72.4121 21.8186V21.6056C72.4121 21.4535 72.2905 21.3317 72.108 21.3317L70.2533 21.5295C70.1012 21.5447 69.9796 21.6665 69.9796 21.8186V24.2074C69.9796 24.3595 70.1012 24.4813 70.2989 24.4813L72.1537 24.2987C72.2905 24.2835 72.4121 24.1617 72.4121 24.0096V23.7814C72.8986 23.7357 73.2787 23.7053 73.5675 23.6901V30.2782C73.2787 30.2934 72.8986 30.3238 72.4121 30.3695V30.1565C72.4121 30.0043 72.2905 29.8826 72.108 29.8826L70.2533 30.0804C70.1012 30.0956 69.9796 30.2173 69.9796 30.3695V32.743C69.9796 32.8952 70.1012 33.0321 70.2989 33.0169L72.1537 32.8343C72.2905 32.8191 72.4121 32.6974 72.4121 32.5604V32.3322C72.8986 32.2866 73.2787 32.2561 73.5675 32.2409V38.19L74.4037 37.9922C82.0812 36.1968 87.7215 36.9728 92.1456 40.4266L92.5713 40.7614L92.997 40.4266C97.4211 36.9728 103.061 36.1968 110.739 37.9922L111.575 38.19V32.2409C111.97 32.2714 112.548 32.3018 113.293 32.3931H113.384C114.935 32.4692 115.148 31.678 115.148 31.678C114.783 30.8564 114.008 30.4912 113.384 30.4303Z" fill="white"/>
<path d="M130.548 113.307L122.856 106.186L121.107 104.543L120.134 106.155C118.462 108.94 116.577 111.557 114.555 113.991L111.94 111.618C115.482 107.342 118.371 102.534 120.484 97.3307C121.29 95.368 121.959 93.3748 122.521 91.336L126.702 102.093L135.535 103.325C135.52 103.356 135.504 103.402 135.489 103.432L130.548 113.307Z" fill="#293D9B"/>
<path d="M70.4661 98.8218C73.5523 100.374 76.2128 101.135 77.8091 101.028H78.022C78.5693 100.982 79.2686 100.83 79.8007 100.511C80.2872 100.222 80.6065 99.9173 80.8801 99.5217C81.1994 99.0501 81.3362 98.6545 81.3666 98.1676C81.169 98.2437 80.9714 98.3045 80.7889 98.3502C80.7433 98.3654 80.6217 98.3806 80.5609 98.3958C78.7669 98.6697 76.5169 98.4262 73.4155 97.5894C72.9138 98.1524 71.8647 98.4719 70.7549 98.2132C70.6485 98.411 70.5573 98.6088 70.4661 98.8218Z" fill="white"/>
<path d="M74.8597 81.8419C74.7837 82.0397 74.6925 82.2223 74.586 82.4201C74.13 83.2265 73.4914 83.8199 72.8529 84.1242C72.8529 84.322 72.8681 84.535 72.8681 84.7328C74.1908 84.1546 75.5438 83.4852 76.8969 82.77C81.8835 80.0922 85.3954 77.1253 86.49 75.0104C86.5204 74.9647 86.5812 74.843 86.6116 74.7821C86.9157 74.204 87.1741 73.4128 87.1741 72.6825C87.1741 71.4653 86.6572 70.385 85.8667 69.822C84.8329 72.226 82.9477 74.9343 80.3632 77.4752C78.5996 79.2097 76.7145 80.6856 74.8597 81.8419Z" fill="white"/>
<path d="M74.1755 94.4401C73.7346 94.927 72.9745 95.3682 72.0927 95.4443C71.9103 95.4595 71.743 95.4747 71.5758 95.4595C71.5302 95.6421 71.4694 95.8246 71.4086 95.992C75.8935 97.2396 79.6334 97.5135 81.549 96.9049C81.5946 96.8897 81.7162 96.8593 81.7618 96.8441C82.3091 96.6615 82.9933 96.3267 83.4494 95.8703C83.8599 95.4443 84.1183 95.0639 84.3007 94.577C84.4984 94.0293 84.4376 93.5576 84.4376 93.5576C84.2551 93.6945 83.3125 93.9836 83.3125 93.9836C81.5642 94.6227 78.5692 94.7596 74.1755 94.4401Z" fill="white"/>
<path d="M86.8246 82.8004C85.1674 84.6262 80.9106 86.6498 75.2551 88.004C74.8902 88.5822 74.2213 89.1147 73.3699 89.4342C73.1267 89.5255 72.8834 89.5863 72.6402 89.632C72.625 89.8298 72.5945 89.9972 72.5793 90.1949C73.0202 90.1797 73.4763 90.1645 73.9172 90.1341C79.5727 89.8146 84.012 88.6126 85.8972 87.1519C85.9428 87.1215 86.0492 87.0302 86.0948 86.9998C86.5965 86.6042 87.1894 85.9956 87.4935 85.3414C87.7672 84.748 87.8736 84.2459 87.8888 83.6829C87.8888 83.0287 87.7672 82.557 87.4783 82.0549C87.3263 82.2527 87.1742 82.4505 87.0374 82.6179C86.9766 82.6483 86.8702 82.7548 86.8246 82.8004Z" fill="white"/>
<path d="M77.0337 102.489C75.255 102.443 72.6857 101.637 69.7059 100.146C69.569 100.374 69.4322 100.602 69.2802 100.815C71.5758 102.017 73.6587 102.839 75.3462 103.234C75.2702 103.326 75.179 103.417 75.0725 103.508C74.7229 103.843 74.3428 104.056 73.8107 104.238C73.233 104.436 72.5032 104.421 71.9559 104.33C71.9103 104.33 71.7887 104.299 71.7431 104.284C70.7397 104.117 69.4018 103.523 67.8815 102.55C67.6991 102.732 67.5166 102.9 67.3494 103.067C68.9305 104.117 70.3444 104.817 71.4694 105.091C71.1806 105.319 70.8917 105.456 70.466 105.577C69.9795 105.714 69.3866 105.669 68.9305 105.577C68.8849 105.577 68.7937 105.547 68.7633 105.532C67.9879 105.364 66.9997 104.862 65.8747 104.086C65.6163 104.208 65.3578 104.33 65.1146 104.421C64.6281 104.558 63.9591 104.695 63.4574 104.695C61.9675 104.695 60.5384 104.01 59.2766 102.793C59.231 102.747 58.8509 103.128 58.9117 103.173C60.1584 104.543 61.8003 105.319 63.427 105.319C63.9591 105.319 65.2362 105.136 65.7075 104.847C67.0453 105.775 68.1248 106.216 69.0217 106.369C69.0673 106.369 69.1738 106.399 69.2194 106.399C69.7059 106.475 70.3596 106.49 70.8917 106.308C71.3782 106.156 71.7127 105.943 72.0319 105.653C72.1688 105.532 72.2904 105.395 72.3816 105.273C72.9441 105.334 73.6283 105.319 74.1908 105.136C74.7837 104.938 75.1942 104.695 75.5894 104.33C75.9087 104.025 76.228 103.752 76.38 103.432C77.2618 103.463 77.9459 103.326 77.9459 103.326C78.2804 103.28 78.6605 103.158 78.9645 102.884C79.1926 102.687 79.3446 102.489 79.4358 102.245C78.7365 102.443 77.9763 102.519 77.353 102.504C77.2922 102.504 77.1097 102.489 77.0337 102.489Z" fill="white"/>
<path d="M79.892 82.5115C78.4629 83.3787 77.0186 84.1395 75.5743 84.7481C75.4071 85.0219 75.2095 85.311 74.9662 85.5697C74.3277 86.2848 73.5523 86.7412 72.8378 86.9086C72.8226 87.1064 72.8226 87.3194 72.8074 87.5172C73.6283 87.3346 74.4797 87.1216 75.3159 86.8934C80.7738 85.4023 84.8634 83.3026 86.4141 81.4768C86.4445 81.4312 86.5509 81.3399 86.5813 81.2943C86.9918 80.8074 87.4479 80.0771 87.5999 79.3772C87.8736 78.1904 87.6607 77.2319 87.0222 76.5015C85.4867 78.6012 82.9782 80.6096 79.892 82.5115Z" fill="white"/>
<path d="M86.3988 88.0192C86.3532 88.0649 86.2164 88.1562 86.1708 88.1866C84.3616 89.5864 80.348 90.7123 75.1334 91.1535C74.7837 91.4882 74.3428 91.8838 73.8411 92.1273C73.2938 92.3859 72.7313 92.5381 72.2144 92.5685C72.184 92.7663 72.1384 92.888 72.0928 93.0858C72.1232 93.0858 72.1536 93.0858 72.1992 93.101C77.8243 93.7705 82.4004 93.3597 84.5137 92.249C84.5593 92.2186 84.6961 92.1577 84.7417 92.1425C85.3194 91.8382 85.9883 91.3361 86.414 90.7427C86.7941 90.2102 86.9917 89.7233 87.083 89.1756C87.1894 88.5365 87.159 88.0953 86.9613 87.5476C86.7637 87.7301 86.5661 87.8823 86.3988 88.0192Z" fill="white"/>
<path d="M74.9815 77.3383C74.9815 78.0078 74.7686 78.7837 74.3581 79.5141C73.902 80.3052 73.2787 80.8986 72.6554 81.2181C72.6706 81.4312 72.701 81.6442 72.7162 81.8572C74.9511 80.6248 77.2619 78.9207 79.3904 76.8362C81.9293 74.3409 83.7688 71.7087 84.7722 69.3504C85.0459 68.7113 85.1827 67.9202 85.1371 67.0833C85.0155 65.3793 84.1337 63.9643 82.9935 63.5078C83.0087 63.8273 82.9935 64.1773 82.9479 64.512C82.7046 66.8855 80.5002 70.948 76.8362 75.2538C76.2281 75.9689 75.62 76.6688 74.9815 77.3383Z" fill="white"/>
<path d="M75.8936 74.6756C79.5119 70.3241 81.6555 66.2313 81.8836 63.8577C82.066 62.3666 81.6859 60.9973 80.8498 60.5104C80.7889 62.6253 77.9156 67.7832 73.3699 73.5497C73.7956 74.3561 73.5979 75.695 72.9138 76.8818C72.6857 77.2774 72.5489 77.4143 72.1384 77.8251C72.1992 78.0838 72.2448 78.3577 72.2905 78.6163C73.4915 77.4296 74.7229 76.0754 75.8936 74.6756Z" fill="white"/>
<path d="M47.2055 77.1405C47.0991 77.0948 46.9774 77.0644 46.871 77.0188C46.9166 77.5208 46.9166 78.0686 46.9166 78.6315C46.9014 80.0313 46.719 81.355 46.4453 82.4505C46.3693 82.7396 46.5061 83.0287 46.7494 83.12C46.8254 83.1504 46.9166 83.1656 46.9926 83.1504V83.1352C47.4335 82.1158 48.0112 80.9899 48.7106 79.8487C48.8322 79.6357 48.969 79.4227 49.0907 79.2249C48.8626 78.3425 48.1937 77.5361 47.2055 77.1405Z" fill="#231F20"/>
<path d="M86.0948 86.9999C86.0492 87.0303 85.9428 87.1064 85.8972 87.152C84.012 88.6126 79.5727 89.8146 73.9172 90.1342C73.4763 90.1646 73.0202 90.1798 72.5793 90.195C72.5945 90.0124 72.6249 89.8299 72.6401 89.6321C72.8834 89.5864 73.1266 89.5256 73.3699 89.4343C74.2212 89.13 74.8902 88.5822 75.255 88.004C80.9106 86.6499 85.1674 84.6263 86.8246 82.8005C86.8702 82.7549 86.9614 82.6484 87.007 82.6027C87.159 82.4353 87.3111 82.2528 87.4479 82.0397C87.7367 82.5266 87.8736 83.0135 87.8584 83.6678C87.8584 84.2307 87.7367 84.7328 87.4631 85.3262C87.1894 85.9804 86.5965 86.6043 86.0948 86.9999ZM86.5965 74.7822C86.5661 74.8278 86.5053 74.9495 86.4749 75.0104C85.3803 77.1253 81.8684 80.1074 76.8818 82.7701C75.5439 83.5004 74.1908 84.1546 72.853 84.7328C72.853 84.5198 72.853 84.322 72.8378 84.1242C73.4763 83.8047 74.1148 83.2113 74.5709 82.4201C74.6773 82.2223 74.7685 82.0397 74.8446 81.842C76.7145 80.6856 78.5845 79.2098 80.3481 77.4905C82.9326 74.9495 84.8178 72.2413 85.8516 69.8373C86.6269 70.4155 87.159 71.4805 87.159 72.6977C87.159 73.4128 86.9006 74.2192 86.5965 74.7822ZM87.5999 79.3771C87.4327 80.077 86.9918 80.7921 86.5813 81.2942C86.5509 81.3399 86.4597 81.4464 86.4141 81.4768C84.8786 83.2874 80.7737 85.4023 75.3159 86.8933C74.4797 87.1216 73.6435 87.3346 72.8074 87.5172C72.8226 87.3194 72.8226 87.1216 72.8378 86.9086C73.5523 86.7412 74.3277 86.2847 74.9662 85.5696C75.2094 85.311 75.4071 85.0219 75.5743 84.748C77.0186 84.1394 78.4629 83.3939 79.892 82.5114C82.9782 80.6095 85.4867 78.6012 87.0374 76.5015C87.6607 77.2318 87.8736 78.1751 87.5999 79.3771ZM82.9934 63.5078C84.1184 63.9795 85.0154 65.3945 85.137 67.0834C85.1978 67.9202 85.061 68.6961 84.7721 69.3504C83.7687 71.6935 81.914 74.3409 79.3903 76.8362C77.277 78.9207 74.951 80.6247 72.7161 81.8572C72.7009 81.6442 72.6705 81.4311 72.6553 81.2181C73.2938 80.8986 73.902 80.3052 74.3581 79.514C74.7838 78.7837 74.9966 78.0078 74.9814 77.3383C75.6047 76.6688 76.228 75.9689 76.8362 75.2538C80.5153 70.948 82.7045 66.8856 82.9478 64.512C82.9934 64.1773 83.0086 63.8426 82.9934 63.5078ZM81.8836 63.8578C81.6707 66.2313 79.5271 70.3242 75.8936 74.6757C74.7229 76.0907 73.4915 77.4296 72.2752 78.6316C72.2296 78.3729 72.184 78.099 72.1232 77.8404C72.5337 77.4296 72.6705 77.2927 72.8986 76.8971C73.5979 75.7103 73.7803 74.3714 73.3547 73.565C77.9004 67.7985 80.7737 62.6406 80.8346 60.5257C81.6859 60.9973 82.066 62.3667 81.8836 63.8578ZM78.022 101.013H77.8092C76.2128 101.119 73.5523 100.343 70.4661 98.8067C70.5573 98.6089 70.6637 98.4111 70.7549 98.1981C71.8648 98.4568 72.9138 98.1525 73.4155 97.5743C76.5169 98.4111 78.7669 98.6546 80.5609 98.3807C80.6065 98.3655 80.7281 98.3503 80.789 98.3351C80.9714 98.2894 81.169 98.2286 81.3667 98.1525C81.3363 98.6394 81.1994 99.035 80.8802 99.5066C80.6065 99.9022 80.2873 100.207 79.8008 100.496C79.2687 100.83 78.5693 100.982 78.022 101.013ZM77.946 103.326C77.946 103.326 77.2618 103.478 76.3801 103.432C76.228 103.767 75.924 104.041 75.5895 104.33C75.1942 104.695 74.7837 104.938 74.1908 105.136C73.6283 105.319 72.9442 105.334 72.3817 105.273C72.2905 105.395 72.1536 105.532 72.032 105.654C71.7127 105.958 71.3631 106.156 70.8918 106.308C70.3597 106.475 69.7059 106.475 69.2194 106.399C69.1738 106.399 69.0674 106.369 69.0218 106.369C68.14 106.216 67.0454 105.775 65.7075 104.847C65.2362 105.136 63.9592 105.319 63.4271 105.319C61.8004 105.319 60.1736 104.543 58.9118 103.173C58.8662 103.128 59.231 102.747 59.2767 102.793C60.5385 104.01 61.9524 104.695 63.4575 104.695C63.9592 104.695 64.6433 104.558 65.1146 104.421C65.3731 104.33 65.6315 104.223 65.8748 104.086C66.9998 104.862 67.988 105.364 68.7633 105.532C68.809 105.532 68.9002 105.562 68.9306 105.577C69.3715 105.669 69.9644 105.714 70.4661 105.577C70.8766 105.456 71.1654 105.319 71.4695 105.091C70.3597 104.801 68.9306 104.117 67.3495 103.067C67.5319 102.9 67.7143 102.732 67.8816 102.55C69.4019 103.523 70.7397 104.117 71.7431 104.284C71.7887 104.299 71.9104 104.315 71.956 104.33C72.5033 104.421 73.2178 104.436 73.8108 104.239C74.3429 104.056 74.7229 103.843 75.0726 103.508C75.179 103.417 75.255 103.326 75.3463 103.234C73.6435 102.839 71.5759 102.017 69.2803 100.815C69.4323 100.602 69.5691 100.374 69.7059 100.146C72.7009 101.637 75.255 102.443 77.0338 102.489C77.1098 102.489 77.2922 102.504 77.3683 102.504C77.9916 102.519 78.7517 102.443 79.4511 102.245C79.3599 102.489 79.2078 102.671 78.9798 102.884C78.6453 103.158 78.2804 103.265 77.946 103.326ZM84.3008 94.5769C84.1184 95.0638 83.8752 95.4442 83.4495 95.8702C82.9934 96.3267 82.3092 96.6614 81.7619 96.844C81.7163 96.8592 81.5947 96.8896 81.5491 96.9049C79.6335 97.5135 75.8936 97.2548 71.4087 95.9919C71.4695 95.8094 71.5303 95.642 71.5759 95.4594C71.7431 95.4594 71.9104 95.4594 72.0928 95.4442C72.9898 95.3681 73.7499 94.9269 74.1756 94.44C78.5541 94.7595 81.5643 94.6378 83.3127 93.9836C83.3127 93.9836 84.24 93.6793 84.4377 93.5575C84.4377 93.5575 84.5137 94.0292 84.3008 94.5769ZM87.0678 89.1756C86.9614 89.7233 86.7637 90.2102 86.3989 90.7428C85.9884 91.3361 85.3042 91.8382 84.7265 92.1425C84.6809 92.173 84.5593 92.2186 84.4985 92.249C82.4005 93.3597 77.8092 93.7706 72.184 93.1011C72.1536 93.1011 72.1232 93.1011 72.0776 93.0859C72.1232 92.8881 72.1536 92.7664 72.1992 92.5686C72.7161 92.5229 73.2786 92.3708 73.826 92.1273C74.3277 91.8839 74.7685 91.4883 75.1182 91.1536C80.3177 90.7123 84.3465 89.5864 86.1556 88.1866C86.2012 88.1562 86.3381 88.0497 86.3837 88.0193C86.5661 87.8823 86.7485 87.7302 86.931 87.5628C87.1438 88.0953 87.1742 88.5366 87.0678 89.1756ZM89.3635 83.5613C89.3026 82.6788 89.029 81.8572 88.6033 81.1877C89.1354 80.4117 89.4091 79.4228 89.3635 78.3121C89.3331 77.1101 88.8922 75.9994 88.2232 75.1778C88.6489 74.417 88.877 73.5041 88.8466 72.4847C88.7857 70.6741 87.9192 69.107 86.6573 68.2853C86.7029 67.9354 86.7181 67.6007 86.7029 67.2355C86.6269 64.5272 85.4563 62.8079 83.5711 62.0776C83.1758 60.1301 81.8684 58.3347 80.6977 57.4522C79.2838 63.4926 74.799 69.2895 73.1874 71.5718C70.5877 75.2538 69.9796 78.7685 68.5353 82.9831C66.8326 87.9736 65.6315 93.2685 61.0706 96.418C61.0706 95.9159 61.101 95.4138 61.1618 94.8812C61.9068 88.0801 67.3951 77.0188 65.4187 70.5676C65.2971 70.172 65.1602 69.7916 64.993 69.4265C63.0318 64.9989 58.5925 64.3142 54.0316 66.3683C51.1886 67.6463 48.2392 68.7266 46.8862 71.8305C46.3389 73.0781 46.1412 74.3562 46.2781 75.4516C46.3085 75.6951 46.4301 75.8929 46.6429 75.9689C46.9318 76.0602 47.2511 75.8929 47.4183 75.5886C47.5399 75.3756 47.6311 75.0713 47.6463 74.7365V74.6909C47.6463 74.6148 47.6615 74.5387 47.6919 74.4627C47.8288 74.1127 48.2088 73.9301 48.5433 74.0671C48.8626 74.204 49.0146 74.5996 48.8778 74.9495C48.8474 75.0104 48.817 75.0713 48.7866 75.1169C48.7105 75.2234 48.6193 75.3603 48.5433 75.4973C48.3761 75.8168 48.2697 76.1211 48.224 76.3797C48.1784 76.7449 48.3761 77.1101 48.7257 77.2622L48.817 77.3079C50.1092 77.8404 51.6447 77.1557 52.5569 75.8016C52.8914 75.2843 53.2106 74.7061 53.4995 74.0823C53.9556 73.1085 53.9252 72.1043 54.6701 71.2371C55.9168 69.7916 59.5503 68.8331 61.1314 70.7654C64.2024 74.4931 60.7818 79.3315 58.6533 82.5114C55.9624 86.513 52.2376 91.0927 50.3525 95.5964C45.4419 107.373 53.8188 118.921 67.3343 118.921C75.9088 118.921 81.2754 115.178 84.316 110.705C78.4477 110.248 75.2702 106.46 75.2702 106.46C75.2702 106.46 76.4409 106.338 77.201 105.06C77.201 105.06 77.7483 104.999 78.2348 104.938C79.4207 104.786 80.5001 104.178 80.9562 102.854C81.3363 101.743 81.3667 101.043 81.3667 101.043C81.3667 101.043 82.1572 100.709 82.6133 99.6436C82.8718 99.035 82.9478 98.7459 82.9478 98.1221C84.3008 97.6656 85.3347 96.494 85.9124 95.0182C86.2164 94.227 86.2772 93.8618 86.2012 93.1011C87.7215 92.3403 88.877 90.1646 88.8162 88.3996C88.801 87.8062 88.6489 87.2585 88.4209 86.7412C89.105 85.95 89.4547 84.8393 89.3635 83.5613Z" fill="#231F20"/>
<path d="M81.9291 23.827H78.9797V19.1103H81.8683C81.8987 19.1864 81.9139 19.3385 81.9139 19.5363C81.9139 19.6885 81.8987 19.8254 81.8683 19.9623H79.9679V20.9817H81.5643C81.5947 21.0578 81.6099 21.1948 81.6099 21.3926C81.6099 21.5447 81.5947 21.6664 81.5643 21.8186H79.9679V22.9749H81.9139C81.9443 23.051 81.9595 23.2031 81.9595 23.4009C81.9747 23.5531 81.9595 23.69 81.9291 23.827Z" fill="#293D9B"/>
<path d="M84.1488 19.9015C83.9968 19.9015 83.8144 19.9015 83.6927 19.9167V21.3165H84.0424C84.6201 21.3165 84.8634 21.1035 84.8634 20.5862C84.8634 20.0689 84.6049 19.9015 84.1488 19.9015ZM86.1556 23.827C85.9732 23.8574 85.7908 23.8726 85.5627 23.8726C85.3651 23.8726 85.1674 23.8726 85.0458 23.8422L84.088 22.1533H83.6775V23.8422C83.5103 23.8726 83.3583 23.8726 83.1758 23.8726C83.0086 23.8726 82.8566 23.8726 82.6893 23.8422V19.1255C83.0086 19.1103 83.6775 19.0951 84.088 19.0951C85.2738 19.0951 85.8668 19.5211 85.8668 20.6014C85.8668 21.1796 85.5171 21.7577 85.0306 21.9707L86.1556 23.827Z" fill="#293D9B"/>
<path d="M89.6066 23.827H86.6572V19.1103H89.5458C89.5762 19.1864 89.5914 19.3385 89.5914 19.5363C89.5914 19.6885 89.5762 19.8254 89.5458 19.9623H87.6606V20.9817H89.2418C89.2722 21.0578 89.2874 21.1948 89.2874 21.3926C89.2874 21.5447 89.2722 21.6664 89.2418 21.8186H87.6454V22.9749H89.5914C89.6218 23.051 89.637 23.2031 89.637 23.4009C89.6522 23.5531 89.637 23.69 89.6066 23.827Z" fill="#293D9B"/>
<path d="M80.4393 26.4135C80.3025 26.4135 80.12 26.4135 79.9832 26.4287V27.8133H80.4089C80.941 27.8133 81.2298 27.6764 81.2298 27.0982C81.2298 26.6113 80.9866 26.4135 80.4393 26.4135ZM80.4545 28.6501H79.968V30.339C79.8312 30.3542 79.6791 30.3694 79.4663 30.3694C79.2839 30.3694 79.1014 30.3542 78.9646 30.339V25.6376C79.3751 25.6223 79.9832 25.5919 80.3785 25.5919C81.4427 25.5919 82.218 25.9571 82.218 27.0678C82.2332 28.148 81.5491 28.6501 80.4545 28.6501Z" fill="#293D9B"/>
<path d="M85.7907 30.339H82.8413V25.6223H85.7299C85.7603 25.6984 85.7755 25.8506 85.7755 26.0483C85.7755 26.2005 85.7603 26.3374 85.7299 26.4744H83.8447V27.4938H85.441C85.4714 27.5699 85.4866 27.7068 85.4866 27.9046C85.4866 28.0567 85.4714 28.1785 85.441 28.3306H83.8447V29.4869H85.7907C85.8211 29.563 85.8363 29.7152 85.8363 29.913C85.8363 30.0499 85.8211 30.1868 85.7907 30.339Z" fill="#293D9B"/>
<path d="M87.9343 26.3983C87.7822 26.3983 87.5998 26.4135 87.4782 26.4135V27.8133H87.8279C88.4056 27.8133 88.6488 27.6003 88.6488 27.083C88.6488 26.5657 88.3904 26.3983 87.9343 26.3983ZM89.9563 30.3238C89.7738 30.3542 89.5914 30.3694 89.3634 30.3694C89.1657 30.3694 88.9681 30.3694 88.8465 30.339L87.8887 28.6501H87.4782V30.339C87.311 30.3694 87.1589 30.3694 86.9765 30.3694C86.8092 30.3694 86.6572 30.3694 86.49 30.339V25.6223C86.8093 25.6071 87.4782 25.5919 87.8887 25.5919C89.0745 25.5919 89.6674 26.0179 89.6674 27.0982C89.6674 27.6764 89.3177 28.2546 88.8312 28.4676L89.9563 30.3238Z" fill="#293D9B"/>
<path d="M99.5647 22.0468L99.1542 20.7078C99.1086 20.5557 99.063 20.3579 99.0174 20.1449H99.0022C98.9718 20.3579 98.9109 20.5557 98.8653 20.7078L98.4701 22.0468H99.5647ZM101.222 23.8269C101.131 23.8422 100.918 23.8574 100.69 23.8574C100.507 23.8574 100.294 23.8422 100.203 23.8269L99.8535 22.8684H98.1812L97.8467 23.8269C97.6947 23.8422 97.5123 23.8574 97.3298 23.8574C97.1474 23.8574 96.9345 23.8422 96.8281 23.8269L98.4701 19.1103C98.5613 19.0951 98.8045 19.0798 98.9566 19.0798C99.139 19.0798 99.367 19.0951 99.443 19.1103L101.222 23.8269Z" fill="#293D9B"/>
<path d="M103.092 19.9015C102.94 19.9015 102.757 19.9015 102.636 19.9167V21.3165H102.985C103.563 21.3165 103.806 21.1035 103.806 20.5862C103.806 20.0689 103.563 19.9015 103.092 19.9015ZM105.114 23.827C104.931 23.8574 104.749 23.8726 104.521 23.8726C104.323 23.8726 104.126 23.8726 104.004 23.8422L103.046 22.1533H102.636V23.8422C102.468 23.8726 102.316 23.8726 102.134 23.8726C101.967 23.8726 101.815 23.8726 101.647 23.8422V19.1255C101.967 19.1103 102.636 19.0951 103.046 19.0951C104.232 19.0951 104.825 19.5211 104.825 20.6014C104.825 21.1796 104.475 21.7577 103.989 21.9707L105.114 23.827Z" fill="#293D9B"/>
<path d="M99.1085 26.4744H97.8619V30.339C97.7251 30.3542 97.5426 30.3694 97.3754 30.3694C97.2081 30.3694 97.0105 30.3542 96.8737 30.339V26.4744H95.627C95.5966 26.3831 95.5814 26.1701 95.5814 26.0484C95.5814 25.9266 95.6118 25.7136 95.6422 25.6223H99.1237C99.1541 25.7136 99.1693 25.9266 99.1693 26.0484C99.1541 26.1549 99.1389 26.3831 99.1085 26.4744Z" fill="#293D9B"/>
<path d="M102.636 30.339H99.6863V25.6223H102.575C102.605 25.6984 102.62 25.8506 102.62 26.0483C102.62 26.2005 102.605 26.3374 102.575 26.4744H100.69V27.4938H102.286C102.316 27.5699 102.332 27.7068 102.332 27.9046C102.332 28.0567 102.316 28.1785 102.286 28.3306H100.69V29.4869H102.636C102.666 29.563 102.681 29.7152 102.681 29.913C102.681 30.0499 102.666 30.1868 102.636 30.339Z" fill="#293D9B"/>
<path d="M104.718 30.3998C104.202 30.3998 103.654 30.3086 103.259 30.126C103.244 30.0347 103.229 29.8977 103.229 29.7912C103.229 29.6239 103.244 29.4565 103.305 29.2739C103.715 29.4413 104.262 29.5478 104.688 29.5478C105.19 29.5478 105.448 29.3196 105.448 29.0001C105.448 28.6501 105.22 28.498 104.551 28.3002C103.791 28.0719 103.244 27.7068 103.244 26.9004C103.244 26.0331 103.989 25.5615 104.977 25.5615C105.433 25.5615 105.828 25.6375 106.102 25.7288C106.117 25.8049 106.132 25.9266 106.132 26.1092C106.132 26.2461 106.117 26.4439 106.087 26.5504C105.737 26.4591 105.342 26.4135 105.022 26.4135C104.506 26.4135 104.217 26.5809 104.217 26.87C104.217 27.2047 104.475 27.3264 105.098 27.5242C105.843 27.7676 106.406 28.1176 106.406 28.9544C106.391 29.8521 105.676 30.3998 104.718 30.3998Z" fill="#293D9B"/>
<path d="M31.5463 21.7729C31.6527 22.062 31.7592 22.3968 31.8048 22.6706H31.82C31.8656 22.3968 31.972 22.062 32.0784 21.7729L32.5953 20.2819C32.7322 19.9015 32.8082 19.5363 32.8082 19.1255C32.945 19.1103 33.1426 19.0951 33.3099 19.0951C33.4619 19.0951 33.6596 19.1103 33.7964 19.1255C33.7964 19.5972 33.7052 20.0384 33.5227 20.5405L32.2609 23.8422C32.1696 23.8574 31.9872 23.8726 31.82 23.8726C31.6375 23.8726 31.4855 23.8574 31.3487 23.8422L30.102 20.5557C29.9196 20.0536 29.8284 19.5972 29.8284 19.1255C29.95 19.1103 30.1172 19.0951 30.3301 19.0951C30.4973 19.0951 30.6949 19.1103 30.8166 19.1255C30.8166 19.5515 30.8926 19.9015 31.0294 20.2819L31.5463 21.7729Z" fill="#293D9B"/>
<path d="M35.3926 23.8269C35.2557 23.8422 35.1037 23.8574 34.8909 23.8574C34.7084 23.8574 34.526 23.8422 34.3892 23.8269V19.1103C34.526 19.0951 34.7236 19.0798 34.8909 19.0798C35.0885 19.0798 35.2557 19.0951 35.3926 19.1103V23.8269Z" fill="#293D9B"/>
<path d="M39.5126 19.9776H38.2659V23.8422C38.1291 23.8574 37.9467 23.8726 37.7642 23.8726C37.597 23.8726 37.3994 23.8574 37.2625 23.8422V19.9776H36.0311C36.0007 19.8863 35.9855 19.6733 35.9855 19.5515C35.9855 19.4298 36.0159 19.2168 36.0463 19.1255H39.5278C39.5582 19.2168 39.5734 19.4298 39.5734 19.5515C39.5734 19.658 39.543 19.8863 39.5126 19.9776Z" fill="#293D9B"/>
<path d="M32.1849 28.5436L31.7744 27.2047C31.7288 27.0526 31.6832 26.8548 31.6376 26.6418H31.6224C31.592 26.8548 31.5312 27.0526 31.4856 27.2047L31.0903 28.5436H32.1849ZM33.842 30.339C33.7508 30.3542 33.538 30.3694 33.3099 30.3694C33.1275 30.3694 32.9147 30.3542 32.8234 30.339L32.4738 29.3805H30.8014L30.467 30.339C30.3149 30.3542 30.1325 30.3694 29.9501 30.3694C29.7676 30.3694 29.5548 30.3542 29.4484 30.339L31.0903 25.6223C31.1815 25.6071 31.4248 25.5919 31.5768 25.5919C31.7592 25.5919 31.9873 25.6071 32.0633 25.6223L33.842 30.339Z" fill="#293D9B"/>
<path d="M39.163 30.339C39.0718 30.3542 38.8893 30.3694 38.6917 30.3694C38.4789 30.3694 38.2812 30.3542 38.2052 30.339L38.1292 27.509L37.0954 29.8978C37.0194 29.9282 36.8521 29.9434 36.7457 29.9434C36.6241 29.9434 36.4721 29.9282 36.396 29.913L35.3622 27.5242L35.271 30.3542C35.1798 30.3694 34.967 30.3846 34.7693 30.3846C34.6629 30.3846 34.4653 30.3694 34.3436 30.3542L34.5413 25.6376C34.6781 25.6223 34.7997 25.6071 34.9518 25.6071C35.119 25.6071 35.2862 25.6223 35.3622 25.6376L36.7457 28.8327L38.1292 25.6376C38.266 25.6223 38.4028 25.6071 38.5397 25.6071C38.7069 25.6071 38.8437 25.6223 38.9502 25.6376L39.163 30.339Z" fill="#293D9B"/>
<path d="M49.3338 23.827H46.3844V19.1103H49.273C49.3034 19.1864 49.3186 19.3385 49.3186 19.5363C49.3186 19.6885 49.3034 19.8254 49.273 19.9623H47.3878V20.9817H48.9841C49.0145 21.0578 49.0297 21.1948 49.0297 21.3926C49.0297 21.5447 49.0145 21.6664 48.9841 21.8186H47.3878V22.9749H49.3338C49.3642 23.051 49.3794 23.2031 49.3794 23.4009C49.3794 23.5531 49.3642 23.69 49.3338 23.827Z" fill="#293D9B"/>
<path d="M50.4285 22.5641L51.3255 21.3469L50.5045 20.2057C50.2461 19.8406 50.0788 19.5059 50.018 19.1103C50.1244 19.0951 50.3525 19.0798 50.5045 19.0798C50.6718 19.0798 50.8846 19.0951 51.0062 19.1103C51.0366 19.4146 51.2191 19.6732 51.4015 19.9319L51.888 20.647L52.3897 19.9471C52.5569 19.7037 52.7242 19.4146 52.7394 19.1103C52.861 19.0951 53.0738 19.0798 53.2411 19.0798C53.3931 19.0798 53.6059 19.0951 53.7124 19.1103C53.6516 19.5515 53.4691 19.9014 53.1955 20.297L52.4505 21.3165L53.3475 22.5641C53.6668 22.9901 53.8036 23.4161 53.834 23.8269C53.7124 23.8422 53.5147 23.8574 53.3323 23.8574C53.1803 23.8574 52.9826 23.8422 52.8458 23.8269C52.8306 23.5226 52.7242 23.2335 52.5417 22.9597L51.8728 21.9555L51.2191 22.9292C51.0518 23.1879 50.9606 23.5074 50.9606 23.8117C50.8542 23.8269 50.6109 23.8421 50.4589 23.8421C50.2917 23.8421 50.094 23.8269 49.9724 23.8117C49.9876 23.4161 50.0788 23.051 50.4285 22.5641Z" fill="#293D9B"/>
<path d="M57.361 20.0993C57.0266 19.9928 56.6009 19.9167 56.2816 19.9167C55.4911 19.9167 54.9742 20.4797 54.9742 21.4991C54.9742 22.4272 55.3847 23.0358 56.2816 23.0358C56.6161 23.0358 56.9962 22.9597 57.3306 22.8684C57.3763 22.9902 57.4067 23.188 57.4067 23.3401C57.4067 23.4618 57.4067 23.5988 57.3915 23.6748C57.0418 23.8422 56.6009 23.9183 56.1904 23.9183C54.6853 23.9183 53.9556 23.0054 53.9556 21.5295C53.9556 20.0993 54.7461 19.0647 56.236 19.0647C56.6009 19.0647 57.0722 19.156 57.4067 19.3081C57.4219 19.3842 57.4371 19.5363 57.4371 19.6276C57.4067 19.8102 57.3762 20.0232 57.361 20.0993Z" fill="#293D9B"/>
<path d="M47.9655 26.4135C47.3726 26.4135 47.0229 26.87 47.0229 27.9807C47.0229 29.0914 47.3574 29.5478 47.9655 29.5478C48.5584 29.5478 48.9081 29.0914 48.9081 27.9807C48.9081 26.87 48.5584 26.4135 47.9655 26.4135ZM47.9655 30.3998C46.6733 30.3998 45.9891 29.5022 45.9891 27.9807C45.9891 26.4439 46.6733 25.5462 47.9655 25.5462C49.2578 25.5462 49.9419 26.4439 49.9419 27.9807C49.9419 29.5022 49.2578 30.3998 47.9655 30.3998Z" fill="#293D9B"/>
<path d="M53.378 30.339H50.4894V25.6223C50.6262 25.6071 50.8086 25.5919 50.9759 25.5919C51.1735 25.5919 51.356 25.6071 51.4776 25.6223V29.4869H53.3628C53.3932 29.563 53.4084 29.7152 53.4084 29.913C53.4388 30.0499 53.4236 30.1868 53.378 30.339Z" fill="#293D9B"/>
<path d="M57.3459 28.5436C57.3459 29.7456 56.8898 30.3998 55.5519 30.3998C54.1989 30.3998 53.7732 29.7304 53.7732 28.5436V25.6223C53.91 25.6071 54.0925 25.5919 54.2597 25.5919C54.4573 25.5919 54.6246 25.6071 54.7766 25.6223V28.6197C54.7766 29.2587 54.959 29.6239 55.5672 29.6239C56.1753 29.6239 56.3881 29.2587 56.3881 28.6197V25.6223C56.5097 25.6071 56.7226 25.5919 56.8898 25.5919C57.0418 25.5919 57.2547 25.6071 57.3763 25.6223V28.5436" fill="#293D9B"/>
</g>
<defs>
<clipPath id="clip0">
<rect width="468" height="154" fill="white"/>
</clipPath>
</defs>
</svg>
