<svg width="1001" height="1338" viewBox="0 0 1001 1338" fill="none" xmlns="http://www.w3.org/2000/svg">
<path d="M101.871 403.717C99.8346 402.593 97.4648 401.746 95.4286 400.622C95.3561 410.786 94.2833 421.777 93.1807 433.073C90.1352 461.131 83.8985 487.337 76.2869 508.785C74.2023 514.438 76.3691 520.505 81.0488 522.811C82.5075 523.57 84.2997 524.053 85.8478 523.896L85.8776 523.591C96.6806 503.995 110.425 482.529 126.629 460.995C129.475 456.958 132.625 452.951 135.442 449.219C132.616 431.067 120.834 413.581 101.871 403.717Z" fill="#ECECEC"/>
<path d="M875.312 680.855C874.322 681.383 872.003 682.721 870.984 683.559C829.682 709.551 736.87 725.197 621.039 720.458C611.999 720.201 602.678 719.604 593.668 719.037C594.34 715.35 595.323 711.693 596.025 707.696C601.071 707.25 606.146 706.495 611.282 705.12C629.229 700.617 643.942 690.795 652.524 679.748C770.411 663.422 861.139 630.684 898.522 596.804C899.541 595.966 901.611 593.979 902.631 593.14C906.06 590.035 909.52 586.62 912.73 582.555C917.646 593.042 919.465 603.227 917.856 616.518C916.737 627.98 913.261 637.961 906.508 649.499C899.634 662.275 886.317 673.798 875.312 680.855ZM909.813 433.094C909.103 433.963 907.622 436.32 906.882 437.499C880.383 478.383 802.923 532.118 696.06 576.416C667.358 588.626 638.498 599.256 610.098 608.368C610.521 604.031 610.914 600.004 610.998 595.946C624.639 590.71 638.824 579.898 649.686 564.696C652.247 560.881 654.468 557.345 656.409 553.468C696.797 533.643 737.819 507.312 777.157 475.812C834.851 429.217 878.632 377.823 904.467 330.932C919.111 344.246 927.833 366.988 925.413 391.771C923.992 406.331 917.125 422.236 909.813 433.094ZM921.119 528.644C916.321 542.562 905.92 556.245 896.561 565.652C895.851 566.521 893.781 568.508 892.792 569.037C857.917 602.849 770.104 637.747 655.97 657.255C638.484 660.239 621.029 662.913 603.635 664.968C604.338 660.971 604.731 656.944 605.464 652.637C620.351 650.65 637.051 642.898 651.478 629.608C656.947 624.825 661.547 619.332 665.498 614.089C696.126 604.569 727.026 592.261 757.888 577.135C824.531 544.548 879.617 508.644 915.376 468.976C926.621 485.085 929.082 504.715 921.119 528.644ZM858.829 196.378C880.807 208.218 896.265 238.812 895.386 273.44C894.962 290.599 890.632 306.126 883.448 318.873C858.354 364.585 815.313 414.8 758.949 460.587C711.762 498.826 660.996 528.897 613.026 549.546C613.14 545.179 612.944 540.782 613.057 536.414C626.698 531.178 640.264 520.306 651.127 505.104C661.249 491.081 667.127 475.705 668.147 462.044C682.174 449.653 696.262 436.642 710.07 423.291C793.567 342.937 846.232 264.576 855.905 216.733C857.499 210.009 858.474 203.224 858.829 196.378ZM835.528 201.297C826.476 249.2 774.678 328.27 692.019 409.645C665.363 436.127 637.619 460.94 610.456 482.995C610.041 477.638 609.657 471.971 608.932 466.584C618.11 459.036 621.169 456.52 626.6 448.919C643.203 426.146 649.581 399.247 642.512 381.982C746.564 273.612 815.342 174.307 820.784 131.368C837.188 142.664 842.208 171.3 835.528 201.297ZM683.028 950.117L678.693 949.694C645.966 948.688 593.317 927.599 533.509 890.175C535.76 886.329 538.32 882.513 540.602 878.357C562.693 885.83 584.665 881.72 596.033 870.946C657.542 894.151 702.889 903.581 739.974 901.572C740.933 901.353 743.441 901.285 744.71 901.096C748.516 900.529 752.663 899.683 756.84 898.527C755.253 908.38 751.68 916.162 744.239 925.131C737.879 932.641 730.771 938.202 720.287 943.121C708.784 948.878 694.237 950.585 683.028 950.117ZM676.883 997.053C676.883 997.053 662.646 998.791 644.776 996.108C641.014 1002.62 634.277 1007.59 626.889 1012.81C618.112 1019.46 609.267 1023.6 596.797 1026.45C584.977 1029.05 571.012 1028 559.675 1025.64C557.575 1027.94 554.516 1030.46 551.796 1032.69C544.689 1038.25 537.173 1041.58 527.271 1043.75C516.1 1046.1 502.785 1044.8 493.026 1042.28C492.097 1042.19 489.99 1041.36 489.061 1041.27C471.403 1036.42 449.984 1025.26 424.578 1003.7C414.404 1008.65 388.029 1009.83 377.191 1008.77C344.056 1005.53 312.464 986.5 289.483 956.11C288.645 955.09 296.833 948.071 297.671 949.091C320.954 976.383 348.393 993.134 379.05 996.127C389.269 997.124 403.476 995.697 413.348 993.846C418.793 992.501 424.269 990.846 429.496 988.542C450.869 1006.58 470 1018.77 485.46 1023.71C486.389 1023.81 488.187 1024.61 488.776 1024.98C497.575 1027.71 509.561 1029.82 520.052 1028.03C528.655 1026.37 534.811 1024.15 541.458 1020.11C519.427 1012.02 491.679 995.237 461.56 970.718C465.608 967.673 469.657 964.628 473.426 961.243C502.458 984.092 528.529 998.834 548.634 1004.24C549.533 1004.64 551.98 1005.19 552.879 1005.59C563.846 1008.54 578.37 1010.27 590.84 1007.42C602.041 1004.76 610.206 1001.18 617.994 995.058C620.343 993.41 622.072 991.703 624.112 990.025C590.215 978.586 549.734 957.746 505.363 928.709C508.883 924.674 512.124 920.299 515.364 915.924C573.405 952.238 623.826 973.735 659.967 978.201C661.515 978.352 665.201 979.025 666.749 979.176C679.415 980.725 695.05 980.688 709.687 978.051C707.345 982.826 703.886 986.241 698.818 990.125C691.461 995.036 683.817 996.479 676.883 997.053ZM823.712 831.561C819.028 841.112 813.317 848.373 803.8 856.2C793.603 864.587 779.003 870.042 767.492 872.671C766.532 872.89 763.995 873.268 763.036 873.487C722.808 882.07 647.144 869.368 558.302 834.738C559.904 831.142 561.475 827.855 562.767 824.228C566.173 824.561 569.58 824.893 573.326 824.946C591.747 825.181 608.108 817.708 617.746 808.642C706.295 823.853 767.851 827.359 804.763 817.515C804.763 817.515 824.257 813.163 828.525 811.078C828.525 811.078 829.136 820.832 823.712 831.561ZM890.806 727.089C887.55 738.029 882.556 747.55 874.066 757.667C864.526 768.932 849.593 777.795 837.221 782.842C836.231 783.371 833.663 784.058 832.364 784.557C787.423 803 693.087 802.235 579.841 777.421C579.221 777.36 578.602 777.3 577.703 776.899C579.025 772.963 579.887 770.545 581.209 766.608C591.828 766.707 603.588 764.727 615.22 760.859C625.923 756.9 635.689 749.722 643.477 743.602C750.26 744.956 834.559 730.042 874.192 705.139C875.181 704.61 878.18 702.713 879.169 702.185C883.157 699.759 887.176 697.024 891.224 693.979C894.501 705.245 894.244 714.289 890.806 727.089ZM948.724 617.342C949.239 599.253 945.298 581.981 937.958 567.504C950.339 552.763 957.878 533.171 959.157 510.466C960.926 485.932 954.153 462.441 942.161 444.383C952.344 429.74 958.803 411.606 960.21 390.79C962.57 353.804 948.033 320.173 923.964 300.936C925.588 293.901 926.563 287.116 926.979 279.651C930.814 224.358 910.386 187.025 873.439 168.407C869.259 127.968 846.195 88.814 824.105 68.5189C783.301 188.693 680.428 297.804 643.068 341.068C582.797 410.867 563.425 481.219 525.63 564.158C481.029 662.382 446.042 767.8 346.882 822.857C347.88 812.634 349.497 802.472 351.794 791.75C380.485 654.757 514.259 440.455 486.824 305.176C485.133 296.879 483.102 288.863 480.421 281.095C449.274 187.048 360.212 164.281 263.23 197.034C202.782 217.403 140.559 233.534 106.83 294.04C93.2026 318.355 86.6369 343.984 87.2466 366.56C87.3821 371.577 89.4663 375.846 93.6505 377.818C99.3527 380.251 106.188 377.479 110.199 371.615C113.1 367.52 115.563 361.506 116.538 354.721L116.629 353.791C116.78 352.243 117.241 350.724 118.011 349.235C121.494 342.382 129.598 339.42 136.139 342.874C142.37 346.296 144.68 354.653 141.198 361.506C140.457 362.685 139.717 363.864 139.007 364.732C137.247 366.75 135.117 369.357 133.296 371.994C129.255 378.166 126.482 384.151 125.039 389.326C123.385 396.671 126.685 404.498 133.504 408.292L135.272 409.402C160.535 422.814 193.172 411.927 214.443 386.169C222.284 376.302 229.936 365.165 237.06 353.038C248.285 334.118 249.662 313.612 266.559 297.435C294.824 270.484 370.74 258.192 399.105 300.679C454.249 382.682 374.957 474.393 325.284 534.907C262.52 611.03 177.55 696.87 130.2 784.818C6.77261 1014.83 154.447 1266.61 429.741 1293.49C604.393 1310.53 721.144 1245 791.967 1159.96C673.343 1139 616.153 1055.55 616.153 1055.55C616.153 1055.55 640.239 1055.4 658.262 1030.89C658.262 1030.89 669.531 1030.74 679.562 1030.46C704.018 1029.72 727.214 1019.48 739.135 993.435C749.084 971.576 751.094 957.386 751.094 957.386C751.094 957.386 767.862 952.143 779.269 931.365C785.743 919.487 787.866 913.752 789.106 901.051C817.573 894.448 840.959 872.65 855.659 843.749C863.425 828.245 865.39 820.931 865.353 805.291C897.832 792.824 925.691 750.822 927.96 714.766C928.83 702.654 926.822 691.199 923.205 680.213C938.712 665.464 948.042 643.545 948.724 617.342Z" fill="#ECECEC"/>
</svg>
