<svg width="730" height="1024" viewBox="0 0 730 1024" fill="none" xmlns="http://www.w3.org/2000/svg">
<path d="M101.875 191.802C99.8391 190.679 97.4694 189.831 95.4332 188.708C95.3607 198.872 94.2879 209.863 93.1852 221.159C90.1398 249.217 83.9031 275.423 76.2914 296.871C74.2069 302.523 76.3736 308.591 81.0534 310.897C82.5121 311.656 84.3043 312.139 85.8524 311.982L85.8822 311.677C96.6851 292.081 110.43 270.615 126.633 249.081C129.48 245.044 132.63 241.036 135.447 237.304C132.62 219.152 120.839 201.667 101.875 191.802Z" fill="#ECECEC"/>
<path d="M875.316 468.94C874.327 469.469 872.008 470.807 870.988 471.645C829.687 497.636 736.875 513.283 621.044 508.544C612.003 508.287 602.683 507.69 593.672 507.123C594.345 503.436 595.327 499.779 596.03 495.782C601.075 495.336 606.151 494.581 611.287 493.205C629.233 488.702 643.947 478.88 652.528 467.834C770.415 451.508 861.144 418.77 898.526 384.89C899.546 384.051 901.616 382.064 902.635 381.226C906.065 378.12 909.524 374.705 912.735 370.64C917.651 381.128 919.47 391.313 917.86 404.604C916.741 416.066 913.266 426.047 906.513 437.584C899.638 450.361 886.321 461.883 875.316 468.94ZM909.817 221.179C909.107 222.048 907.627 224.406 906.887 225.584C880.387 266.468 802.927 320.204 696.065 364.502C667.363 376.711 638.502 387.342 610.102 396.454C610.526 392.117 610.919 388.09 611.002 384.032C624.643 378.796 638.829 367.984 649.691 352.782C652.252 348.966 654.473 345.43 656.414 341.554C696.801 321.728 737.824 295.397 777.162 263.898C834.855 217.302 878.637 165.908 904.472 119.018C919.116 132.331 927.837 155.074 925.418 179.857C923.997 194.417 917.13 210.322 909.817 221.179ZM921.123 316.73C916.326 330.648 905.924 344.331 896.565 353.738C895.855 354.607 893.786 356.594 892.796 357.123C857.921 390.934 770.108 425.833 655.974 445.34C638.489 448.325 621.034 450.999 603.639 453.054C604.342 449.057 604.735 445.03 605.468 440.723C620.355 438.736 637.056 430.984 651.483 417.694C656.952 412.911 661.552 407.418 665.502 402.174C696.13 392.654 727.03 380.347 757.893 365.22C824.535 332.633 879.622 296.729 915.381 257.062C926.626 273.171 929.086 292.801 921.123 316.73ZM858.834 -15.5361C880.812 -3.69588 896.27 26.8976 895.391 61.5257C894.966 78.6849 890.637 94.2118 883.453 106.958C858.358 152.67 815.317 202.885 758.953 248.673C711.767 286.912 661.001 316.983 613.031 337.632C613.144 333.265 612.948 328.867 613.062 324.5C626.703 319.264 640.269 308.392 651.131 293.19C661.254 279.166 667.131 263.79 668.152 250.129C682.179 237.738 696.266 224.727 710.074 211.377C793.571 131.022 846.237 52.662 855.909 4.81895C857.503 -1.90563 858.478 -8.69053 858.834 -15.5361ZM835.533 -10.6177C826.48 37.2858 774.683 116.356 692.024 197.731C665.367 224.213 637.623 249.026 610.461 271.081C610.046 265.724 609.661 260.057 608.937 254.67C618.114 247.122 621.173 244.606 626.605 237.005C643.208 214.232 649.585 187.333 642.517 170.068C746.568 61.6972 815.346 -37.6073 820.788 -80.5467C837.192 -69.2506 842.212 -40.614 835.533 -10.6177ZM683.033 738.203L678.697 737.779C645.971 736.774 593.321 715.685 533.513 678.26C535.764 674.414 538.325 670.599 540.606 666.443C562.698 673.916 584.67 669.806 596.038 659.032C657.547 682.237 702.894 691.667 739.979 689.657C740.938 689.438 743.445 689.37 744.714 689.182C748.521 688.615 752.668 687.769 756.844 686.613C755.257 696.465 751.684 704.248 744.244 713.216C737.884 720.727 730.776 726.288 720.292 731.206C708.788 736.964 694.241 738.671 683.033 738.203ZM676.888 785.139C676.888 785.139 662.651 786.876 644.781 784.194C641.019 790.707 634.281 795.679 626.894 800.899C618.117 807.548 609.272 811.689 596.802 814.537C584.981 817.136 571.016 816.086 559.679 813.728C557.579 816.025 554.52 818.541 551.801 820.778C544.693 826.339 537.178 829.67 527.276 831.831C516.105 834.181 502.789 832.881 493.031 830.365C492.102 830.274 489.995 829.443 489.066 829.352C471.408 824.501 449.989 813.341 424.582 791.784C414.408 796.733 388.033 797.911 377.195 796.853C344.061 793.619 312.469 774.585 289.488 744.196C288.65 743.176 296.838 736.157 297.676 737.177C320.959 764.468 348.397 781.22 379.054 784.213C389.273 785.21 403.48 783.782 413.352 781.931C418.798 780.586 424.274 778.932 429.501 776.627C450.874 794.663 470.004 806.851 485.465 811.8C486.394 811.891 488.191 812.692 488.78 813.062C497.579 815.798 509.565 817.906 520.057 816.115C528.66 814.453 534.815 812.239 541.462 808.197C519.431 800.104 491.683 783.323 461.564 758.804C465.613 755.759 469.662 752.714 473.431 749.329C502.462 772.178 528.534 786.92 548.639 792.322C549.538 792.723 551.985 793.275 552.884 793.675C563.85 796.622 578.374 798.352 590.844 795.504C602.046 792.845 610.211 789.263 617.998 783.143C620.347 781.496 622.077 779.788 624.116 778.111C590.22 766.671 549.738 745.832 505.368 716.794C508.888 712.76 512.128 708.385 515.369 704.01C573.41 740.324 623.831 761.821 659.971 766.287C661.52 766.438 665.205 767.111 666.754 767.262C679.42 768.811 695.054 768.773 709.692 766.137C707.35 770.912 703.891 774.327 698.822 778.211C691.465 783.122 683.822 784.565 676.888 785.139ZM823.716 619.647C819.033 629.197 813.322 636.458 803.805 644.286C793.608 652.673 779.007 658.128 767.496 660.757C766.537 660.976 763.999 661.354 763.04 661.573C722.813 670.156 647.149 657.453 558.307 622.824C559.908 619.227 561.48 615.941 562.771 612.314C566.178 612.646 569.584 612.979 573.33 613.032C591.752 613.266 608.112 605.794 617.75 596.727C706.299 611.938 767.855 615.445 804.767 605.601C804.767 605.601 824.262 601.249 828.529 599.163C828.529 599.163 829.14 608.918 823.716 619.647ZM890.811 515.174C887.554 526.115 882.561 535.635 874.071 545.752C864.53 557.018 849.597 565.88 837.225 570.928C836.236 571.456 833.668 572.144 832.369 572.643C787.427 591.086 693.091 590.321 579.845 565.506C579.226 565.446 578.607 565.385 577.708 564.985C579.03 561.048 579.891 558.63 581.213 554.694C591.833 554.792 603.593 552.813 615.225 548.944C625.927 544.985 635.694 537.808 643.482 531.687C750.265 533.042 834.564 518.128 874.196 493.225C875.186 492.696 878.184 490.799 879.174 490.27C883.162 487.845 887.18 485.11 891.229 482.065C894.506 493.331 894.248 502.375 890.811 515.174ZM948.729 405.428C949.244 387.339 945.303 370.067 937.963 355.59C950.343 340.848 957.883 321.256 959.161 298.551C960.931 274.018 954.158 250.527 942.166 232.468C952.348 217.825 958.808 199.692 960.214 178.875C962.574 141.89 948.038 108.259 923.968 89.0215C925.593 81.9871 926.568 75.2021 926.984 67.737C930.818 12.444 910.391 -24.8895 873.444 -43.5074C869.263 -83.946 846.2 -123.1 824.11 -143.395C783.306 -23.2214 680.433 85.8898 643.072 129.154C582.801 198.953 563.429 269.304 525.634 352.244C481.033 450.468 446.046 555.886 346.887 610.943C347.885 600.72 349.502 590.558 351.799 579.836C380.49 442.843 514.263 228.54 486.828 93.2613C485.137 84.965 483.106 76.9483 480.426 69.1809C449.278 -24.8662 360.216 -47.6331 263.234 -14.8803C202.786 5.48919 140.564 21.6198 106.835 82.126C93.2072 106.44 86.6414 132.069 87.2512 154.646C87.3867 159.663 89.4709 163.932 93.6551 165.904C99.3573 168.337 106.193 165.564 110.204 159.701C113.105 155.606 115.568 149.592 116.542 142.806L116.633 141.877C116.784 140.328 117.245 138.81 118.016 137.321C121.498 130.468 129.603 127.506 136.143 130.959C142.374 134.382 144.685 142.739 141.202 149.592C140.462 150.771 139.722 151.949 139.011 152.818C137.251 154.836 135.121 157.442 133.301 160.079C129.259 166.252 126.487 172.236 125.044 177.412C123.389 184.756 126.689 192.584 133.509 196.377L135.276 197.488C160.54 210.9 193.177 200.012 214.448 174.255C222.289 164.387 229.941 153.25 237.064 141.123C248.29 122.204 249.666 101.698 266.564 85.5209C294.829 58.5699 370.744 46.2779 399.109 88.7644C454.253 170.768 374.962 262.479 325.289 322.992C262.525 399.116 177.554 484.956 130.205 572.904C6.77719 802.915 154.452 1054.7 429.745 1081.57C604.397 1098.62 721.148 1033.08 791.972 948.051C673.348 927.089 616.157 843.635 616.157 843.635C616.157 843.635 640.244 843.484 658.267 818.973C658.267 818.973 669.536 818.822 679.566 818.551C704.023 817.81 727.219 807.565 739.139 781.521C749.089 759.662 751.099 745.472 751.099 745.472C751.099 745.472 767.867 740.229 779.274 719.451C785.748 707.573 787.87 701.838 789.11 689.137C817.578 682.534 840.963 660.735 855.664 631.835C863.43 616.331 865.394 609.017 865.358 593.376C897.836 580.91 925.695 538.908 927.965 502.851C928.834 490.739 926.826 479.285 923.209 468.299C938.717 453.55 948.047 431.631 948.729 405.428Z" fill="#ECECEC"/>
</svg>
